<svg version="1.1" id="Layer_1" xmlns="http://www.w3.org/2000/svg" xmlns:xlink="http://www.w3.org/1999/xlink" x="0px" y="0px"
	 width="100%" viewBox="0 0 1024 560" enable-background="new 0 0 1024 560" xml:space="preserve">
<path fill="#000000" opacity="1.000000" stroke="none" 
	d="
M535.468628,561.000000 
	C524.185608,559.143799 513.203979,558.566711 502.415985,556.403992 
	C420.271027,539.935913 358.129791,495.223846 315.206451,423.607391 
	C295.754028,391.151642 283.984314,355.791931 280.035736,318.276642 
	C271.482361,237.011429 293.591736,164.963852 347.865570,103.482925 
	C384.476715,62.010155 430.015594,34.600819 483.401703,20.256386 
	C515.232544,11.703700 547.541809,9.093070 580.369629,12.587637 
	C652.127930,20.226408 711.843140,51.169868 759.880676,104.889717 
	C793.365662,142.335709 814.109070,186.145905 823.762573,235.157379 
	C828.599792,259.716064 829.568481,284.656525 827.427124,309.709198 
	C822.003662,373.159637 797.098145,427.898987 753.718079,474.192841 
	C712.045715,518.664490 660.850159,546.027588 600.936096,556.960876 
	C591.298950,558.719482 581.474670,559.452087 571.368408,560.829468 
	C559.312439,561.000000 547.624878,561.000000 535.468628,561.000000 
M470.965302,32.513123 
	C467.342133,33.752136 463.670929,34.867058 460.102936,36.248596 
	C397.674225,60.421299 350.152985,101.723419 317.954071,160.448853 
	C298.657410,195.642715 288.517822,233.530640 286.481201,273.500061 
	C285.100037,300.605621 288.131683,327.431183 295.145386,353.635651 
	C311.118866,413.315308 343.730042,462.041016 393.038177,499.317169 
	C437.253510,532.743286 487.376556,550.203491 542.632996,552.605713 
	C567.665710,553.693970 592.453308,551.078064 616.868591,545.079102 
	C641.136292,539.116333 664.191284,530.131287 685.788879,517.633179 
	C728.568481,492.877625 762.200134,458.975525 786.493652,415.862366 
	C803.466003,385.741913 814.007080,353.444275 818.473450,319.258942 
	C821.571228,295.548584 820.695923,271.786163 817.297852,248.096542 
	C810.162964,198.355209 790.653870,153.953293 758.313049,115.678955 
	C715.056519,64.486206 660.171814,33.196220 593.685303,22.602840 
	C563.282227,17.758680 533.111145,18.502462 502.700684,24.499247 
	C504.619019,26.035791 505.028900,27.936998 505.342712,29.945549 
	C508.052826,47.291828 512.758240,64.074959 519.753113,80.190163 
	C520.631165,82.213196 521.022766,83.923904 519.081726,85.552094 
	C517.266846,87.074509 515.435364,86.829590 513.491943,85.939781 
	C511.002594,84.800072 509.901428,82.593620 508.977295,80.220779 
	C507.733643,77.027611 506.456085,73.847656 505.187073,70.646736 
	C499.112976,73.149376 493.600708,75.447464 488.064636,77.686630 
	C486.169647,78.453094 485.239014,79.933067 484.708740,81.762077 
	C483.458649,86.074074 482.343292,90.428955 480.957458,94.696350 
	C480.082275,97.391281 478.274292,99.867958 475.154449,98.846260 
	C472.160980,97.865952 471.771515,95.088226 472.840118,92.183395 
	C474.041656,88.917305 475.163025,85.621735 476.284241,82.438545 
	C472.055511,78.746460 471.748322,76.142761 475.817932,74.432251 
	C479.790924,72.762337 481.214447,69.653114 482.471313,66.255081 
	C487.514771,52.619949 496.731720,40.650757 498.149536,25.399500 
	C489.402435,26.852146 480.531097,29.443111 470.965302,32.513123 
M501.013916,54.477036 
	C500.287476,52.173637 499.561035,49.870239 498.542053,46.639267 
	C494.443634,54.495811 491.188385,61.591545 488.874756,69.028671 
	C490.888824,70.049530 492.098053,69.249840 493.336060,68.900864 
	C503.877014,65.929504 503.875000,65.922386 501.013916,54.477036 
z"/>
<path fill="#000000" opacity="1.000000" stroke="none" 
	d="
M386.224762,388.783020 
	C395.473145,417.030701 409.249084,442.461792 428.204712,464.763489 
	C454.285370,495.447876 486.552429,516.436890 526.450562,524.934814 
	C547.240112,529.362793 568.012878,530.141724 588.902649,526.341675 
	C596.276306,525.000366 603.341003,522.386597 610.424011,519.944519 
	C612.975403,519.064758 615.550110,518.396179 618.240601,519.299500 
	C619.977417,519.882629 621.919678,520.360657 622.328674,522.503784 
	C622.749023,524.705933 621.085571,525.840576 619.540588,526.820923 
	C611.634949,531.837341 603.230835,535.866821 594.461914,539.116638 
	C570.527466,547.986816 545.913391,548.193237 521.236206,543.772705 
	C480.016052,536.388672 446.165222,515.745728 418.389740,484.756226 
	C399.285553,463.441406 384.842438,439.418488 375.125183,412.379028 
	C370.555817,399.664246 365.814667,386.972992 363.755615,373.704132 
	C359.855347,348.569763 356.080536,323.300629 361.205261,297.799927 
	C362.156158,293.068207 361.837341,288.221832 362.572540,283.415497 
	C368.051483,247.597565 381.602325,214.908890 401.289459,184.799225 
	C416.636444,161.327454 435.952393,141.272781 458.922852,125.140999 
	C481.537262,109.259239 506.499786,98.048470 533.968506,94.141556 
	C556.115662,90.991547 578.593628,90.975037 600.334534,97.197952 
	C625.196289,104.314140 648.010254,115.650299 668.073242,132.419495 
	C686.448730,147.778259 701.667480,165.784409 713.902771,186.137543 
	C731.880981,216.044067 742.497986,248.501770 746.366760,283.352936 
	C748.567322,303.175476 748.339417,322.859497 747.122131,342.628113 
	C745.379761,370.921692 738.693604,397.951599 724.301208,422.522827 
	C711.101440,445.057861 696.278870,466.323181 671.984741,478.763062 
	C650.973389,489.522003 630.161011,489.943451 609.521118,478.187561 
	C587.482056,465.634766 573.968750,445.562195 562.578369,423.786621 
	C551.268433,402.164642 543.573181,379.107635 536.142090,355.959961 
	C533.365906,347.311981 535.051147,342.374084 542.330811,336.804565 
	C545.509155,334.372925 548.339172,334.214325 551.180481,337.104523 
	C557.887634,343.926849 565.606079,349.299835 573.869568,354.135834 
	C586.220398,361.363892 599.593445,363.688080 613.560120,364.004883 
	C617.543823,364.095245 618.872925,362.114502 617.162231,358.651276 
	C608.882141,341.888397 604.137451,323.747375 596.730164,306.638031 
	C592.966980,297.945984 589.766296,288.988220 586.736572,280.007111 
	C583.728699,271.090363 582.563660,270.254242 573.211426,270.695404 
	C564.560852,271.103485 555.881836,270.873474 547.222473,271.148102 
	C542.747681,271.290009 538.280212,271.845673 533.824463,272.348022 
	C530.066711,272.771759 529.412231,276.100952 528.392578,278.810059 
	C523.353577,292.198334 518.790588,305.775818 513.414551,319.024780 
	C504.862183,340.101624 498.466370,362.158844 485.509430,381.283600 
	C476.262817,394.931702 464.986023,406.215698 449.464050,412.515442 
	C437.425720,417.401337 424.194885,411.812744 418.086853,400.352234 
	C410.333466,385.804565 411.710480,371.070587 416.359528,356.271057 
	C424.400574,330.673676 438.758728,309.110107 459.496674,292.083282 
	C477.070282,277.654480 496.832794,267.090210 518.888550,261.196442 
	C523.564514,259.946930 526.129456,257.714905 527.591309,252.894424 
	C532.612427,236.337204 538.591431,220.096649 544.862976,203.963333 
	C549.167542,192.890076 548.008728,181.712494 544.037354,170.871323 
	C542.701294,167.224091 543.057800,165.088684 546.002869,162.723587 
	C548.578979,160.654800 550.537598,157.828613 553.061523,155.680695 
	C556.668335,152.611130 558.870667,153.312729 560.217834,157.921890 
	C566.719666,180.166428 576.168213,201.328186 584.221008,222.998566 
	C587.404053,231.564362 590.869141,240.063156 593.674683,248.746552 
	C595.342834,253.909576 598.412964,255.579742 603.160034,255.582825 
	C617.111938,255.591904 630.638855,258.437164 643.707886,262.848389 
	C655.906494,266.965820 667.303101,272.884979 675.929199,283.022919 
	C687.561890,296.694366 689.785767,312.109161 682.828247,328.216675 
	C675.035706,346.257172 662.017456,359.795258 643.741699,367.764465 
	C640.161804,369.325470 639.562927,371.476440 641.167236,374.887299 
	C648.319336,390.092834 654.459717,405.771149 662.781372,420.432098 
	C665.685486,425.548523 664.767334,427.032318 659.080322,427.083221 
	C651.249939,427.153290 643.417969,427.018524 635.586548,427.001282 
	C632.355164,426.994141 630.155640,425.744537 631.034668,422.218140 
	C633.614624,411.867798 630.880920,402.065643 628.273560,392.240997 
	C627.251282,388.389008 626.047913,384.579926 624.786377,380.798248 
	C623.870789,378.053711 622.215820,376.960297 619.032837,377.799438 
	C606.881775,381.002960 594.663879,380.403656 582.450073,377.935272 
	C575.989807,376.629669 570.024475,374.230988 564.574890,370.513550 
	C563.219971,369.589325 561.647461,368.384674 560.069946,369.825409 
	C558.671082,371.102875 559.759644,372.661987 560.325562,373.980682 
	C569.190796,394.638885 578.122375,415.274323 591.565796,433.521240 
	C602.930847,448.947266 616.291077,462.268982 635.094238,467.908203 
	C652.101074,473.008667 668.740479,470.760864 683.822937,460.914520 
	C699.655029,450.578766 708.409729,434.593170 716.520020,418.302460 
	C719.991333,411.329926 722.883850,404.070740 725.034973,396.485291 
	C728.500305,384.265594 730.226501,371.810638 731.523010,359.241760 
	C733.840332,336.778107 732.878113,314.328644 730.547913,291.975708 
	C727.746399,265.100983 719.835510,239.524551 707.611877,215.492676 
	C697.684570,195.975555 684.817017,178.492828 669.518494,162.588867 
	C653.896912,146.349045 636.129333,133.474167 615.735229,124.388062 
	C592.834473,114.185143 568.714722,108.376686 543.498535,109.331680 
	C515.980530,110.373840 490.295319,117.928261 466.245117,131.765350 
	C445.268555,143.834061 428.470612,160.158676 414.462646,179.437500 
	C404.057770,193.757553 396.470612,209.691452 390.087280,226.279053 
	C380.337952,251.613480 375.844421,277.810150 375.128296,304.806061 
	C374.373474,333.260620 377.175964,361.234985 386.224762,388.783020 
M437.716064,392.798798 
	C440.852325,395.302948 443.984619,397.616089 448.301605,397.873444 
	C458.843933,398.501892 467.016113,394.451630 473.242035,386.036194 
	C480.866028,375.731018 484.866333,363.712067 489.890320,352.117767 
	C500.275940,328.149841 508.683136,303.435272 518.266968,279.169617 
	C518.815247,277.781342 519.302856,276.324280 517.998047,274.828705 
	C515.519043,274.316437 513.243835,275.511993 510.896667,276.139709 
	C500.719971,278.861359 491.251617,283.423828 481.804169,287.898163 
	C466.238708,295.269897 452.511810,305.411560 442.915283,319.802551 
	C432.683105,335.146790 426.930725,352.132507 427.872375,371.099823 
	C428.296356,379.640015 431.041260,386.585144 437.716064,392.798798 
M630.102417,278.421570 
	C621.570801,275.426422 612.839355,273.451630 604.182678,272.338135 
	C603.069580,274.663727 603.885559,275.878296 604.345032,277.070099 
	C614.575134,303.603058 624.881226,330.106842 635.045288,356.665009 
	C636.265442,359.853149 638.025513,360.110901 640.853577,359.170166 
	C645.824646,357.516663 649.879211,354.171143 654.504150,351.969360 
	C674.014099,342.681274 676.122925,319.361877 665.890747,303.064606 
	C657.675720,289.980011 644.210632,284.386444 630.102417,278.421570 
M560.619507,254.885544 
	C563.616577,254.861465 566.614258,254.865005 569.610657,254.807648 
	C576.155823,254.682373 577.056519,253.227646 574.539856,247.354095 
	C570.027466,236.822723 565.379395,226.344482 561.762756,215.451324 
	C560.171509,210.658310 558.461304,205.904739 556.805054,201.133286 
	C549.368408,219.429688 543.585510,237.931519 536.061462,256.691956 
	C544.820801,256.028259 552.239990,255.466095 560.619507,254.885544 
z"/>
<path fill="#000000" opacity="1.000000" stroke="none" 
	d="
M567.170288,49.209824 
	C563.484253,52.149456 559.773804,54.368008 555.807861,56.146149 
	C553.575867,57.146870 552.679199,58.566284 554.032776,60.856651 
	C557.763733,67.169624 561.449890,73.522514 567.430664,78.082817 
	C569.223633,79.449951 571.975098,80.437691 570.046814,83.458084 
	C568.209229,86.336525 565.670105,88.111504 562.042358,86.842506 
	C559.927551,86.102715 558.471497,84.430496 557.106934,82.736031 
	C551.442505,75.702164 546.881042,67.962914 542.589600,60.046001 
	C541.013794,57.138981 541.825134,55.509987 544.859192,54.329010 
	C549.812500,52.400940 554.877441,50.620983 559.049927,47.127071 
	C562.250061,44.447411 565.304993,41.245964 563.405884,36.913986 
	C561.480652,32.522236 556.531433,32.023182 552.386536,31.033739 
	C550.317871,30.539921 549.843262,32.862602 549.182373,34.282280 
	C542.911072,47.754211 537.718933,61.590099 535.270508,76.331177 
	C534.562134,80.596344 531.248596,83.338814 527.805298,82.112167 
	C523.691467,80.646637 524.497681,77.274422 525.460205,74.156387 
	C529.439514,61.265095 533.772278,48.501411 539.315796,36.176823 
	C540.110535,34.409840 541.251953,32.701599 541.230530,31.150759 
	C540.089417,28.556171 535.386475,30.274504 536.527161,26.586880 
	C537.399658,23.765928 539.978577,21.856331 543.114807,22.161427 
	C550.870605,22.915924 558.727844,23.198994 565.970398,26.740952 
	C575.700745,31.499620 577.156189,39.100792 569.676025,46.975876 
	C568.990234,47.697933 568.194519,48.315670 567.170288,49.209824 
z"/>
<path fill="#000000" opacity="1.000000" stroke="none" 
	d="
M305.748962,246.761688 
	C315.190704,255.277847 326.265472,260.601898 337.559509,265.510132 
	C341.216187,267.099274 345.002045,268.431854 348.810364,269.620514 
	C352.923035,270.904175 354.009949,274.041443 352.929443,277.440002 
	C351.647125,281.473480 348.231262,280.299255 345.411926,279.054230 
	C333.818115,273.934540 322.673279,267.949554 311.842010,261.374420 
	C309.162018,259.747559 306.465515,258.147949 304.028168,256.686615 
	C301.578186,257.715912 302.719910,260.485657 300.359802,261.503540 
	C297.034607,260.670410 295.312927,258.013062 295.879639,254.667969 
	C297.271545,246.452332 299.207642,238.310562 303.968811,231.244965 
	C309.377075,223.219070 316.593567,222.817429 322.937256,230.151505 
	C327.050476,234.906860 329.424500,240.620026 331.093475,246.574951 
	C331.813721,249.144882 332.781433,249.947266 335.270782,248.913818 
	C342.195312,246.039047 349.234894,243.370056 354.620972,237.832825 
	C356.324890,236.081085 357.927124,234.300980 360.492920,236.490875 
	C362.877228,238.525818 363.977661,240.959457 362.626068,244.010712 
	C361.557281,246.423538 359.419861,247.832367 357.233734,249.041794 
	C349.644287,253.240463 341.715149,256.697662 333.614136,259.794464 
	C329.872162,261.224915 328.099548,260.359192 327.539948,256.201263 
	C326.873047,251.246185 325.359009,246.458847 322.849182,242.066696 
	C320.974396,238.785812 318.616852,235.677963 314.589386,235.561981 
	C310.409485,235.441605 309.004700,239.231522 307.351624,242.278091 
	C306.646820,243.577072 306.248108,245.042145 305.748962,246.761688 
z"/>
<path fill="#000000" opacity="1.000000" stroke="none" 
	d="
M759.382629,134.102722 
	C764.892944,137.591873 765.126404,139.139633 761.440247,143.530319 
	C753.989624,152.404861 748.618958,162.544098 743.770630,172.985535 
	C743.447876,173.680573 743.407532,174.506714 743.167664,175.575455 
	C746.580566,176.089859 749.265381,174.446228 752.135376,173.941956 
	C760.975281,172.388763 769.828918,170.911835 778.656921,169.294205 
	C782.030640,168.676010 784.923035,169.426727 787.476990,171.626038 
	C788.354431,172.381653 789.380859,173.180344 789.142151,174.506363 
	C788.825989,176.262833 787.287964,176.097900 785.989136,176.259140 
	C778.079041,177.241211 770.072510,177.524521 762.277405,179.337204 
	C753.417358,181.397522 744.165222,182.374084 736.877075,188.787292 
	C734.707397,190.696457 732.258484,190.163391 729.994812,188.525482 
	C727.687439,186.855972 728.354431,184.794556 729.113892,182.699890 
	C733.216309,171.385666 738.742920,160.771255 744.904663,150.463287 
	C745.988831,148.649521 747.530518,147.022873 747.729431,144.301071 
	C736.637573,145.433563 725.997681,147.649048 715.773621,151.739502 
	C714.693176,152.171753 713.632507,152.665985 712.600464,153.203949 
	C709.180847,154.986557 706.062073,154.286041 704.640869,150.883530 
	C703.128418,147.262329 706.317017,145.877838 709.075928,145.039627 
	C719.435669,141.892090 730.032288,139.727936 740.694946,137.918991 
	C745.289612,137.139496 749.932800,136.670883 754.168030,134.514282 
	C755.708435,133.729904 757.313293,133.459442 759.382629,134.102722 
z"/>
<path fill="#000000" opacity="1.000000" stroke="none" 
	d="
M322.175262,169.958786 
	C327.868042,167.207184 333.088593,168.352829 337.816895,171.081894 
	C354.582275,180.758545 364.084381,195.402710 365.194366,214.710098 
	C365.944427,227.757294 356.679352,233.946777 344.473877,229.422302 
	C334.589325,225.758179 328.193756,218.124908 322.799133,209.564621 
	C320.504120,205.922897 318.783508,201.920898 316.771820,198.098434 
	C315.145721,195.008652 314.621704,191.797943 315.882690,188.490021 
	C316.648407,186.481216 316.189056,184.596359 315.871857,182.621246 
	C314.988464,177.120987 316.692108,172.786774 322.175262,169.958786 
M351.191559,220.552536 
	C356.496857,218.606445 358.302246,215.608826 357.889008,209.432297 
	C357.098907,197.623901 343.274139,181.972992 331.574829,179.642242 
	C325.145660,178.361420 318.419861,184.165253 320.497711,189.961700 
	C325.739746,204.585159 334.006195,216.683197 351.191559,220.552536 
z"/>
<path fill="#000000" opacity="1.000000" stroke="none" 
	d="
M694.992798,137.566483 
	C697.064575,134.297409 698.899475,131.311783 701.041016,128.565247 
	C702.732910,126.395439 702.858337,124.934296 700.318726,123.351959 
	C695.942139,120.625023 691.657104,117.742371 687.434998,114.780548 
	C685.700317,113.563675 684.079407,113.682358 682.255066,114.282364 
	C677.986816,115.686180 673.707703,117.058273 669.416687,118.390984 
	C666.536865,119.285431 663.824097,118.849968 662.949158,115.703178 
	C662.141602,112.798988 664.120789,111.046875 666.853943,110.301285 
	C670.380066,109.339363 673.924988,108.446480 677.431580,107.531776 
	C677.655396,102.060249 679.851196,100.675644 684.554749,103.387634 
	C686.934631,104.759796 689.217407,105.072777 691.711243,104.545227 
	C702.628601,102.235771 713.629517,100.511833 724.766602,99.744850 
	C726.567505,99.620827 727.884094,98.681320 729.211670,97.683083 
	C731.179504,96.203354 733.327393,95.567650 735.781555,96.056465 
	C737.468628,96.392494 739.096802,96.846359 739.689270,98.701408 
	C740.245361,100.442596 739.070496,101.499931 737.932983,102.511833 
	C724.546753,114.419876 712.869751,127.810181 703.044128,142.798782 
	C701.833618,144.645355 700.432251,145.849472 698.093018,144.986603 
	C694.673279,143.725159 694.649414,140.893661 694.992798,137.566483 
M707.046387,120.385590 
	C711.013550,116.521049 715.112305,112.766243 718.718445,107.155350 
	C709.935669,107.544319 702.566406,109.175056 693.840393,111.145920 
	C698.805054,114.965248 701.734131,118.843391 707.046387,120.385590 
z"/>
<path fill="#000000" opacity="1.000000" stroke="none" 
	d="
M423.610504,131.854034 
	C420.088257,134.252502 416.989380,133.651718 414.101471,131.469223 
	C411.194702,129.272461 408.394531,126.934639 405.185608,124.369164 
	C401.160614,129.831909 397.227325,135.121597 393.355255,140.455734 
	C392.232941,142.001816 393.000763,143.718735 393.362549,145.289642 
	C394.332184,149.499939 395.438446,153.679535 396.536194,157.859283 
	C397.262238,160.623840 396.659454,163.298981 393.965485,164.051331 
	C391.005096,164.878128 388.955536,162.850067 388.255157,159.857697 
	C387.686462,157.427933 387.285553,154.959290 386.783508,152.513397 
	C386.413269,150.709732 386.172638,149.081650 383.575928,148.873260 
	C380.607788,148.635117 379.950195,145.672607 381.185974,144.018616 
	C386.024323,137.542923 382.593872,130.791733 382.372345,124.205475 
	C382.177246,118.405663 381.156158,112.638184 380.784027,106.838196 
	C380.528595,102.856812 380.844055,98.869339 377.788361,95.615181 
	C376.727722,94.485657 376.828552,92.804764 377.070831,91.301140 
	C377.362335,89.491844 377.610321,87.603539 379.710327,86.854172 
	C381.936401,86.059822 383.044861,87.563965 384.250366,89.007133 
	C391.517456,97.706757 399.220673,105.985527 407.826691,113.395287 
	C412.492706,117.412712 417.004730,121.623566 422.217529,124.950325 
	C424.908203,126.667496 425.916992,128.699875 423.610504,131.854034 
M387.682343,115.099495 
	C388.781128,120.621056 388.288177,126.484039 391.026886,132.373901 
	C394.152740,128.900848 396.812866,125.944511 399.473907,122.988991 
	C400.657135,121.674812 400.827087,120.316040 399.494781,119.031311 
	C395.724365,115.395622 392.370789,111.297897 387.926544,108.085030 
	C386.958496,110.359138 387.441681,112.333420 387.682343,115.099495 
z"/>
<path fill="#000000" opacity="1.000000" stroke="none" 
	d="
M757.028015,226.136032 
	C758.653503,225.340439 760.307800,225.249847 761.105042,223.523865 
	C758.512024,217.895615 755.904968,212.174225 753.234314,206.482666 
	C752.539917,205.002899 751.115173,204.506699 749.599121,204.144501 
	C745.234070,203.101654 740.871582,202.041306 736.536926,200.880112 
	C733.773071,200.139740 731.166565,198.519745 731.899475,195.425888 
	C732.637756,192.309402 735.609558,192.002197 738.459045,192.775711 
	C741.025940,193.472504 743.573181,194.244522 746.115723,195.026917 
	C747.593506,195.481689 748.847717,195.898712 749.982666,194.144714 
	C752.588440,190.117645 755.239868,192.561996 756.423279,195.012238 
	C758.180176,198.649811 761.178955,199.789886 764.443970,201.102859 
	C772.310486,204.266296 780.131836,207.544525 787.935120,210.861649 
	C791.732361,212.475800 795.282959,214.762192 799.771301,213.719788 
	C801.492981,213.319931 802.899902,214.627365 804.251648,215.588516 
	C805.642883,216.577805 806.935486,217.741821 806.649353,219.647781 
	C806.341370,221.699265 804.610962,222.014114 802.928711,222.343613 
	C789.516113,224.970810 776.440308,228.742447 763.816956,234.008682 
	C759.983398,235.607956 756.193665,237.315872 752.417786,239.047897 
	C750.675537,239.847076 749.074097,240.522995 747.422241,238.840439 
	C745.656677,237.041931 745.508118,235.117569 746.541992,232.914795 
	C748.568359,228.597290 753.083923,228.139114 757.028015,226.136032 
M768.598511,221.707870 
	C773.754822,220.380386 778.977295,219.230118 784.645325,216.392227 
	C776.726257,212.316879 769.464783,209.867111 761.783997,207.958923 
	C763.596069,212.839127 762.794312,218.556335 768.598511,221.707870 
z"/>
<path fill="#000000" opacity="1.000000" stroke="none" 
	d="
M641.596313,103.749741 
	C637.776245,102.264626 634.755798,100.268494 631.882629,97.930824 
	C629.399597,95.910576 629.051025,93.595703 630.065735,90.821877 
	C630.643738,89.241936 631.271729,87.593376 633.085571,87.106735 
	C635.226074,86.532455 635.938171,88.435326 636.882996,89.695518 
	C641.981995,96.495949 648.567627,99.861893 657.195801,98.839310 
	C665.200806,97.890594 667.981750,91.926460 663.325256,85.405266 
	C661.202576,82.432442 658.572388,79.837334 656.877930,76.537888 
	C653.888367,70.716400 655.229675,65.865440 660.831238,62.528229 
	C671.411743,56.224712 685.656555,57.463654 695.366272,65.639397 
	C697.320740,67.285095 700.351196,69.270149 697.409363,72.043571 
	C695.083679,74.236130 691.697937,74.229828 689.344238,71.657326 
	C687.073914,69.175926 684.916199,66.752670 681.724976,65.399170 
	C678.288513,63.941692 674.963867,63.950695 671.580139,65.475166 
	C666.297180,67.855362 664.958374,71.949074 668.151062,76.771599 
	C669.799133,79.261032 671.871826,81.465225 673.674133,83.857475 
	C679.633484,91.767410 677.627686,99.069939 668.331787,102.834351 
	C659.704346,106.328094 650.884338,106.848526 641.596313,103.749741 
z"/>
<path fill="#000000" opacity="1.000000" stroke="none" 
	d="
M374.652496,161.404907 
	C377.020081,166.788040 379.891724,171.458008 382.839966,176.088593 
	C383.812836,177.616608 385.005676,179.052689 385.119781,181.001709 
	C385.287170,183.860703 384.189026,185.684311 381.316650,186.608475 
	C378.403229,187.545898 376.901398,186.306274 375.890533,183.830978 
	C373.628418,178.291794 371.144806,172.829025 369.189911,167.183304 
	C367.896973,163.449310 365.643982,161.498489 361.891937,160.614456 
	C353.485840,158.633896 345.168945,156.264313 336.739136,154.399521 
	C333.083588,153.590881 330.624237,152.086136 331.401642,148.166672 
	C332.221985,144.030746 335.416321,143.120865 339.104370,144.155548 
	C345.024078,145.816345 350.874359,147.723328 356.778931,149.440430 
	C358.305878,149.884476 359.739868,151.086258 362.015717,150.091965 
	C359.770813,143.090637 357.472931,136.064453 355.276978,129.006546 
	C354.392944,126.165237 353.272186,123.305603 353.913544,120.236069 
	C354.316162,118.309036 354.581818,115.966187 357.136536,115.814217 
	C359.778687,115.657051 359.638947,118.203430 359.979279,119.789391 
	C363.065460,134.171707 368.144043,147.838638 374.652496,161.404907 
z"/>
<path fill="#000000" opacity="1.000000" stroke="none" 
	d="
M604.769592,30.805098 
	C613.985107,31.878756 622.728394,32.921524 631.468262,33.991158 
	C633.071167,34.187332 635.241943,33.976818 635.449402,36.122585 
	C635.656799,38.268017 633.692322,39.254608 631.940186,39.758392 
	C629.012329,40.600227 625.932373,40.471790 623.039734,39.726509 
	C616.298950,37.989746 611.888916,40.198990 608.251587,46.225655 
	C601.302917,57.738869 593.067505,68.512016 589.995239,82.012474 
	C589.174438,85.619110 586.374573,86.756950 583.052795,85.547600 
	C579.677429,84.318733 577.939514,82.157318 579.776428,78.199280 
	C585.260193,66.383644 592.031555,55.329727 599.204590,44.497093 
	C600.480286,42.570538 601.667297,40.585243 603.122131,38.265373 
	C597.243530,35.934162 590.930359,38.692272 585.341858,35.704552 
	C586.131592,32.013786 588.575562,30.821339 591.813965,30.778944 
	C595.973938,30.724485 600.135376,30.777008 604.769592,30.805098 
z"/>
<path fill="#000000" opacity="1.000000" stroke="none" 
	d="
M780.423340,263.592163 
	C771.737793,261.664551 763.496582,259.634338 754.874634,260.107819 
	C751.225891,260.308136 749.064575,257.837708 749.296448,254.505341 
	C749.527588,251.182251 751.167603,248.842056 755.608093,249.409698 
	C769.085266,251.132523 781.854980,255.519455 794.832214,259.146667 
	C796.536377,259.622986 798.251892,260.058807 800.354370,260.617615 
	C800.704468,254.165314 797.714172,248.830078 797.375793,242.859070 
	C801.842834,242.306229 803.308167,244.873245 804.539368,247.925079 
	C808.265076,257.160645 808.802246,267.034363 810.376282,276.698761 
	C811.135803,281.362366 811.756897,286.048553 812.473999,290.952057 
	C808.514099,291.239960 806.930298,289.214874 806.055176,286.575439 
	C805.166992,283.896881 804.149963,281.128082 804.018555,278.359436 
	C803.749023,272.678131 801.016663,269.649872 795.602356,268.289917 
	C790.606018,267.035004 785.740906,265.257782 780.423340,263.592163 
z"/>
<path fill="#000000" opacity="1.000000" stroke="none" 
	d="
M428.836365,92.332474 
	C430.492554,99.153778 430.420471,105.912750 432.865967,112.805214 
	C441.504517,108.556351 448.026184,102.105011 455.141449,96.738228 
	C458.165527,98.948158 457.447327,101.217560 455.929321,103.108948 
	C449.258575,111.420555 440.824066,117.674911 431.559631,122.720840 
	C427.593475,124.881012 424.457306,122.701187 423.900787,118.163361 
	C421.793427,100.980255 419.590485,83.819160 413.517548,67.447227 
	C412.240845,64.005455 413.621460,61.103481 416.684875,60.097549 
	C419.978271,59.016109 422.511902,61.128948 423.237793,64.551033 
	C425.168701,73.653893 426.933685,82.791954 428.836365,92.332474 
z"/>
<path fill="#000000" opacity="1.000000" stroke="none" 
	d="
M614.186951,83.309448 
	C624.479248,69.163261 637.295410,57.566677 646.979187,43.376415 
	C648.816101,40.684582 652.074768,39.593761 654.847778,41.743614 
	C657.684448,43.942837 656.497925,46.739555 654.440735,49.130329 
	C645.233276,59.830685 635.361328,69.966621 626.934448,81.327934 
	C624.962158,83.987099 623.051270,86.754448 621.576416,89.704170 
	C619.734436,93.388153 616.824524,95.573944 613.243530,93.698395 
	C608.890930,91.418785 611.024048,87.845688 613.092529,84.814720 
	C613.373474,84.403015 613.669922,84.001953 614.186951,83.309448 
z"/>
</svg>